<svg xmlns:svg="http://www.w3.org/2000/svg" xmlns="http://www.w3.org/2000/svg" width="74.4" height="84.7" viewBox="0 0 263.6 300" version="1.1"><defs><clipPath clipPathUnits="userSpaceOnUse"><path d="m0 0 1857 0 0 501.6-1857 0z"/></clipPath></defs><g transform="translate(2.155345,-42.933626)"><path d="m122.5 44.8c4.4-2.5 9.8-2.5 14.2 0l117.6 67.9c4.4 2.5 7.1 7.2 7.1 12.3l0 135.8c0 5.1-2.7 9.8-7.1 12.3l-117.6 67.9c-4.4 2.5-9.8 2.5-14.2 0L4.9 273.1C0.6 270.6-2.2 265.9-2.2 260.8l0-135.8c0-5.1 2.7-9.8 7.1-12.3L122.5 44.8" fill="#72c42d"/><path d="m108.7 133.6c0-0.6 0.3-1.2 0.9-1.5l19.3-11.1c0.5-0.3 1.2-0.3 1.7 0l19.3 11.1c0.5 0.3 0.9 0.9 0.9 1.5l0 22.3c0 0.6-0.3 1.2-0.8 1.5l-19.3 11.2c-0.5 0.3-1.2 0.3-1.7 0L109.6 157.4c-0.5-0.3-0.8-0.9-0.8-1.5zm-5.2 165.2c1.1 0.6 2.3 0.6 3.4 0 1-0.6 1.7-1.7 1.7-2.9l0-86.3c0-0.8 0.5-1.6 1.2-2.1 0.7-0.4 1.6-0.4 2.4 0l14.1 8.1c2.1 1.2 4.7 1.2 6.8 0l56.3-32.5c2.1-1.2 3.4-3.5 3.4-5.9l0-65c0-2.4-1.3-4.7-3.4-5.9L133 73.8c-2.1-1.2-4.7-1.2-6.8 0L69.9 106.3c-2.1 1.2-3.4 3.5-3.4 5.9l0 161.9c0 2.5 1.3 4.7 3.5 5.9l33.5 18.7" fill="#2e2d2d"/></g></svg>