<?xml version="1.0" encoding="UTF-8" standalone="no"?>
<svg
   xmlns:dc="http://purl.org/dc/elements/1.1/"
   xmlns:cc="http://creativecommons.org/ns#"
   xmlns:rdf="http://www.w3.org/1999/02/22-rdf-syntax-ns#"
   xmlns:svg="http://www.w3.org/2000/svg"
   xmlns="http://www.w3.org/2000/svg"
   version="1.1"
   id="svg2"
   viewBox="0 0 263.55901 299.99999"
   height="300"
   width="263.55902">
  <defs
     id="defs4">
    <clipPath
       id="clipPath20"
       clipPathUnits="userSpaceOnUse">
      <path
         id="path18"
         d="m 0,0 1857,0 0,501.598 -1857,0 z" />
    </clipPath>
  </defs>
  <g
     transform="translate(2.155345,-42.933626)"
     id="layer1">
    <path
       id="path28"
       style="fill:#72c42d;fill-opacity:1;fill-rule:evenodd;stroke:none"
       d="m 122.51274,44.836476 c 4.39007,-2.537133 9.80363,-2.537133 14.19736,0 l 117.58905,67.858514 c 4.39748,2.53334 7.10451,7.22213 7.10451,12.3013 l 0,135.81945 c 0,5.07534 -2.70703,9.76012 -7.09658,12.30117 l -117.59332,67.91367 c -4.39739,2.53739 -9.81095,2.53739 -14.20843,0 L 4.9422022,273.11691 C 0.55168707,270.57586 -2.155345,265.89108 -2.155345,260.81574 l 0,-135.82681 c 0,-5.07181 2.70703207,-9.7606 7.100297,-12.29394 L 122.51274,44.836476" />
    <path
       id="path24"
       style="fill:#2e2d2d;fill-opacity:1;fill-rule:evenodd;stroke:none"
       d="m 108.74621,133.5763 c 0,-0.60611 0.32486,-1.16805 0.85199,-1.46976 l 19.31945,-11.13755 c 0.52536,-0.30072 1.17184,-0.30072 1.6972,0 l 19.32134,11.13755 c 0.52535,0.30183 0.85011,0.86365 0.85011,1.46976 l 0,22.30842 c 0,0.60707 -0.32487,1.16913 -0.84824,1.47348 l -19.32134,11.15868 c -0.52723,0.3054 -1.17371,0.3054 -1.70096,0 L 109.59444,157.3582 c -0.52348,-0.30425 -0.84823,-0.86641 -0.84823,-1.47348 z m -5.22113,165.21885 c 1.05439,0.58647 2.33854,0.57276 3.37836,-0.0395 1.03792,-0.6094 1.67607,-1.72546 1.67607,-2.92911 l 0,-86.32839 c 0,-0.84727 0.45489,-1.63369 1.18728,-2.05854 0.73545,-0.42615 1.64284,-0.42615 2.37903,0 l 14.09033,8.11739 c 2.10031,1.21067 4.68655,1.20878 6.78833,-0.002 l 56.27435,-32.47682 c 2.10412,-1.21476 3.39773,-3.45808 3.39773,-5.88431 l 0,-64.96611 c 0,-2.42675 -1.29361,-4.6703 -3.39581,-5.88595 L 133.02857,73.844317 c -2.10414,-1.214256 -4.69399,-1.214256 -6.79812,0 L 69.948877,106.34466 c -2.102308,1.21568 -3.397118,3.45922 -3.397118,5.88537 l 0,161.94416 c 0,2.46366 1.335399,4.73356 3.487348,5.93602 l 33.485973,18.68505" />
  </g>
  <metadata
     id="metadata3498">
    <rdf:RDF>
      <cc:Work
         rdf:about="">
        <dc:title></dc:title>
      </cc:Work>
    </rdf:RDF>
  </metadata>
</svg>
